<svg version="1.1" xmlns="http://www.w3.org/2000/svg" xmlns:xlink="http://www.w3.org/1999/xlink" width="512.000000pt" height="512.000000pt" viewBox="0,0,256,256"><g fill="#ffffff" fill-rule="nonzero" stroke="none" stroke-width="1" stroke-linecap="butt" stroke-linejoin="miter" stroke-miterlimit="10" stroke-dasharray="" stroke-dashoffset="0" font-family="none" font-weight="none" font-size="none" text-anchor="none" style="mix-blend-mode: normal"><g transform="translate(0.01495,0.35206) scale(0.5,0.5)"><g transform="translate(0,512) scale(0.1,-0.1)"><path d="M2885,4320c-183,-16 -353,-57 -520,-128l-110,-47l-728,-5l-729,-5l-25,-29c-19,-23 -23,-36 -19,-60c13,-64 -21,-61 628,-66l591,-5l-91,-77c-295,-251 -504,-612 -584,-1010c-20,-97 -23,-144 -23,-328c0,-184 4,-231 23,-328c32,-160 86,-317 157,-459l62,-123h-562c-554,0 -563,0 -589,-21c-37,-29 -37,-89 0,-118c26,-21 35,-21 644,-21h617l86,-100c251,-288 577,-478 967,-561c91,-20 135,-23 330,-23c196,-1 239,2 339,22c796,161 1362,770 1441,1551c50,501 -118,1009 -454,1370c-317,341 -719,536 -1176,571c-146,11 -142,11 -275,0zM3255,4144c192,-27 417,-100 565,-181c199,-110 395,-283 519,-458c119,-169 215,-397 263,-625c18,-89 22,-138 22,-315c1,-184 -2,-224 -23,-325c-144,-696 -634,-1155 -1351,-1266c-141,-22 -366,-22 -495,1c-676,117 -1214,687 -1316,1393c-17,121 -6,412 20,527c111,491 445,909 896,1120c286,135 574,176 900,129z"></path><path d="M2910,3919c-324,-37 -612,-179 -838,-414c-324,-337 -449,-785 -346,-1245c151,-673 726,-1094 1431,-1048c546,35 1002,379 1174,886c145,428 96,856 -140,1212c-228,346 -596,568 -1010,610c-116,11 -163,11 -271,-1zM2970,3596c0,-148 2,-166 20,-189c11,-13 31,-28 45,-31c29,-7 79,15 89,39c3,9 6,91 6,181v164h31c107,0 346,-74 477,-147c322,-180 554,-518 606,-882l7,-44l-159,7c-176,8 -203,3 -223,-45c-13,-33 2,-83 30,-98c9,-5 92,-12 185,-16l169,-8l-6,-81c-25,-341 -229,-683 -527,-881c-166,-111 -333,-172 -542,-200l-48,-6v151c0,147 -1,152 -25,175c-26,27 -70,32 -96,12c-33,-25 -39,-55 -39,-196v-141l-42,6c-176,24 -300,62 -435,133c-288,152 -506,419 -597,732c-25,87 -46,212 -46,274v33l140,-5c105,-5 147,-3 165,7c30,16 47,62 35,95c-17,44 -46,53 -188,57c-72,3 -135,8 -139,11c-9,10 16,140 44,227c91,283 290,527 549,675c146,84 346,147 482,154l32,1z"></path><path d="M2999,3101c-24,-19 -24,-22 -27,-233l-4,-213l-39,-28c-104,-72 -103,-230 3,-303c34,-24 51,-29 104,-29l63,-1l85,-82c94,-93 126,-103 171,-57c46,46 36,77 -59,174c-84,85 -85,87 -79,127c7,55 -11,106 -53,151l-34,36v217c0,213 0,217 -23,238c-29,27 -77,28 -108,3z"></path><path d="M596,3757c-41,-41 -32,-98 19,-124c12,-6 187,-13 450,-18l430,-7l28,22c24,19 28,28 25,63c-6,77 6,75 -489,83l-437,7z"></path><path d="M931,3453c-11,-10 -24,-32 -27,-50c-5,-27 -1,-37 24,-63l30,-30h127h127l30,30c25,26 29,36 24,63c-11,59 -32,67 -181,67c-112,0 -136,-3 -154,-17z"></path><path d="M363,3109c-33,-17 -48,-62 -33,-99c7,-17 20,-35 29,-39c9,-5 181,-12 383,-16l367,-7l25,26c34,33 35,84 4,113c-22,20 -36,21 -388,27c-261,4 -371,3 -387,-5z"></path><path d="M341,2674c-28,-35 -27,-66 3,-101l24,-28l372,-3l373,-3l23,22c30,28 32,77 5,110l-19,24l-380,3l-380,3z"></path><path d="M841,2364c-29,-36 -27,-75 5,-105c23,-22 36,-24 132,-27c132,-5 178,7 197,50c15,37 3,83 -25,98c-10,6 -79,10 -154,10c-133,0 -135,0 -155,-26z"></path><path d="M430,2015c-32,-34 -30,-83 5,-112c26,-23 30,-23 343,-25c435,-4 420,-4 445,20c26,26 28,85 4,109c-25,25 -117,32 -463,32l-311,1z"></path></g></g></g></svg>