<svg version="1.1" xmlns="http://www.w3.org/2000/svg" xmlns:xlink="http://www.w3.org/1999/xlink" width="512.000000pt" height="512.000000pt" viewBox="0,0,256,256"><g fill="#ffffff" fill-rule="nonzero" stroke="none" stroke-width="1" stroke-linecap="butt" stroke-linejoin="miter" stroke-miterlimit="10" stroke-dasharray="" stroke-dashoffset="0" font-family="none" font-weight="none" font-size="none" text-anchor="none" style="mix-blend-mode: normal"><g transform="translate(-0.01601,-0.05583) scale(0.5,0.5)"><g transform="translate(0,512) scale(0.1,-0.1)"><path d="M65,4151c-11,-5 -29,-19 -40,-31c-20,-22 -20,-38 -23,-1014c-3,-903 -2,-994 13,-1022c9,-18 28,-37 41,-43c17,-7 139,-11 378,-11c406,0 391,-3 422,93l16,52l177,-176c164,-164 285,-266 621,-530c215,-169 474,-361 535,-398c83,-50 243,-102 334,-108c86,-6 185,14 231,47c26,18 34,19 75,9c137,-35 300,39 396,177c27,40 29,41 77,36c137,-13 301,69 367,183c23,39 29,42 91,54c83,15 133,40 195,98c68,64 101,138 105,233l2,75l74,52c40,29 78,52 83,52c6,1 19,-27 30,-61c34,-106 20,-102 408,-106c369,-4 396,0 427,51c19,31 20,58 20,1017c0,954 -1,986 -19,1016c-32,52 -62,57 -301,44c-378,-19 -664,-66 -941,-156c-190,-61 -236,-95 -226,-166l5,-37l-52,20c-28,12 -78,31 -111,44c-33,12 -174,70 -313,129c-295,125 -402,156 -541,156c-155,0 -280,-43 -437,-151l-70,-49h-423h-423l7,64c5,49 3,70 -9,95c-54,103 -341,188 -813,240c-229,25 -363,33 -388,22zM405,3920c266,-30 498,-73 603,-112l53,-20l-6,-46c-39,-284 -187,-862 -376,-1469l-11,-33h-229h-229v850c0,468 3,850 8,850c4,0 88,-9 187,-20zM4910,2880v-850h-229h-229l-42,133c-105,331 -345,989 -456,1252c-35,82 -60,152 -56,156c11,10 187,57 312,83c202,42 447,72 618,75l82,1zM2743,3704c40,-9 113,-34 162,-54c50,-21 187,-78 305,-127c118,-49 293,-119 388,-154l172,-64l61,-155c120,-306 346,-947 338,-954c-2,-2 -46,-31 -97,-65l-93,-62l-26,33c-107,131 -311,315 -678,613c-268,218 -380,311 -465,391c-82,76 -108,94 -139,94c-13,0 -80,-22 -148,-50c-68,-27 -134,-50 -146,-50c-39,-1 -98,-28 -115,-52c-33,-48 -118,-131 -158,-154c-66,-39 -139,-49 -215,-30c-35,9 -70,24 -77,34c-34,43 27,212 126,351c93,132 346,357 467,416c112,55 215,67 338,39zM1855,3488c-260,-319 -332,-576 -204,-731c61,-74 224,-126 356,-113c128,13 236,70 342,179c46,46 74,67 98,72c19,3 70,22 115,41l81,34l51,-48c58,-54 186,-161 500,-416c580,-473 728,-645 653,-760c-24,-36 -75,-66 -114,-66c-44,0 -127,74 -436,393c-269,277 -286,290 -350,263c-61,-25 -83,-95 -48,-151c10,-16 153,-167 317,-334c165,-167 298,-309 296,-315c-11,-35 -73,-75 -136,-87c-81,-15 -92,-7 -382,287c-149,150 -284,278 -299,284c-40,15 -92,-4 -116,-44c-24,-39 -24,-73 0,-112c10,-17 128,-142 261,-278l242,-246l-27,-36c-53,-70 -122,-96 -182,-68c-24,11 -142,122 -314,296c-270,271 -278,278 -317,278c-76,0 -128,-74 -99,-142c8,-18 114,-136 237,-261c122,-125 220,-230 216,-234c-9,-10 -125,13 -190,37c-76,29 -180,100 -466,320c-437,336 -626,497 -812,691c-95,99 -174,184 -176,189c-2,5 27,113 63,241c73,254 160,593 196,762l22,107h324h324z"></path></g></g></g></svg>