<svg version="1.1" xmlns="http://www.w3.org/2000/svg" xmlns:xlink="http://www.w3.org/1999/xlink" width="512.000000pt" height="512.000000pt" viewBox="0,0,256,256"><g fill="#ffffff" fill-rule="nonzero" stroke="none" stroke-width="1" stroke-linecap="butt" stroke-linejoin="miter" stroke-miterlimit="10" stroke-dasharray="" stroke-dashoffset="0" font-family="none" font-weight="none" font-size="none" text-anchor="none" style="mix-blend-mode: normal"><g transform="translate(-0.11742,-0.02491) scale(0.5,0.5)"><g transform="translate(0,512) scale(0.1,-0.1)"><path d="M2370,5113c-232,-22 -409,-56 -590,-115c-397,-129 -719,-325 -1019,-621c-412,-407 -661,-908 -742,-1497c-20,-143 -18,-527 4,-670c90,-586 331,-1065 738,-1467c196,-193 400,-343 631,-461c815,-419 1808,-366 2570,136c789,521 1229,1426 1148,2362c-19,213 -80,498 -117,549c-71,95 -204,95 -263,-1c-33,-54 -33,-85 -1,-211c52,-205 65,-319 65,-557c0,-243 -13,-349 -70,-570c-203,-779 -832,-1404 -1610,-1599c-211,-53 -318,-65 -554,-65c-231,0 -342,12 -535,60c-504,126 -943,417 -1252,829c-229,304 -367,632 -430,1020c-24,153 -24,496 0,650c81,497 290,910 636,1256c348,346 760,555 1256,635c81,14 167,18 325,18c238,0 352,-13 557,-65c132,-33 168,-32 221,7c87,67 83,188 -9,257c-50,37 -330,97 -544,117c-102,9 -333,11 -415,3z"></path><path d="M4130,5110c-31,-13 -636,-615 -656,-653c-10,-19 -28,-162 -55,-440l-41,-412l-483,-485c-524,-525 -507,-505 -490,-597c9,-49 69,-109 118,-118c92,-17 72,-34 597,490l485,483l412,40c277,28 421,46 440,56c15,8 168,156 340,328c271,272 312,318 318,351c9,48 1,91 -26,128c-41,58 -69,64 -389,89c-162,13 -298,26 -301,29c-4,3 -17,137 -29,296c-24,318 -32,354 -90,395c-37,26 -111,36 -150,20zM4074,4383c23,-281 28,-286 309,-309c100,-8 190,-15 200,-17c12,-1 -24,-43 -125,-145l-143,-142l-299,-30c-164,-17 -300,-29 -303,-27c-2,3 10,139 27,303l30,299l142,143c102,101 144,137 145,125c2,-10 9,-100 17,-200z"></path><path d="M2345,4313c-552,-71 -1043,-401 -1319,-884c-63,-111 -134,-278 -165,-390c-50,-187 -56,-234 -56,-479c0,-245 6,-293 56,-475c40,-149 127,-341 216,-480c232,-361 600,-630 1023,-749c330,-93 770,-71 1090,56c531,210 920,639 1074,1188c59,207 74,524 36,747c-29,170 -43,213 -85,253c-31,30 -43,35 -98,38c-52,3 -67,0 -96,-20c-40,-27 -71,-81 -71,-123c0,-17 9,-71 21,-121c30,-130 38,-406 15,-546c-87,-529 -462,-968 -971,-1137c-181,-60 -291,-75 -503,-68c-237,7 -374,40 -577,137c-422,203 -722,601 -799,1059c-21,124 -21,358 0,482c101,603 584,1083 1192,1184c140,24 416,16 546,-14c108,-25 137,-26 183,-5c50,24 83,78 83,137c0,124 -72,166 -347,207c-67,9 -381,12 -448,3z"></path><path d="M2393,3505c-201,-36 -365,-124 -513,-274c-129,-130 -212,-278 -257,-457c-24,-95 -24,-333 0,-428c46,-182 128,-328 261,-462c134,-133 280,-215 462,-261c95,-24 333,-24 428,0c185,46 324,125 461,262c183,183 276,395 279,632c1,110 -7,132 -68,177c-39,29 -133,29 -172,0c-54,-40 -66,-67 -75,-166c-5,-51 -18,-122 -29,-158c-58,-191 -228,-360 -425,-423c-57,-18 -93,-22 -190,-22c-104,1 -130,5 -193,27c-105,38 -176,83 -257,163c-247,246 -245,645 5,895c129,130 282,189 483,190c109,0 138,10 180,60c72,85 24,219 -88,249c-53,14 -202,12 -292,-4z"></path></g></g></g></svg>